HIERARCHY
ROOT Hips
{
	OFFSET 0.00 0.00 0.00
	CHANNELS 6 Xposition Yposition Zposition Xrotation Yrotation Zrotation
	JOINT RightUpLeg
	{
		OFFSET -3.76699 0.00000 0.00000
		CHANNELS 3 Xrotation Yrotation Zrotation
		JOINT RightLeg
		{
			OFFSET 0.00000 -18.01768 0.00000
			CHANNELS 3 Xrotation Yrotation Zrotation
			JOINT RightFoot
			{
				OFFSET 0.00000 -16.88108 0.00000
				CHANNELS 3 Xrotation Yrotation Zrotation
				JOINT RightToeBase
				{
					OFFSET 0.00000 -1.49359 5.57418
					CHANNELS 3 Xrotation Yrotation Zrotation
					End Site
					{
						OFFSET 0.00000 0.00000 2.95275
					}
				}
			}
		}
	}
	JOINT LeftUpLeg
	{
		OFFSET 3.76699 0.00000 0.00000
		CHANNELS 3 Xrotation Yrotation Zrotation
		JOINT LeftLeg
		{
			OFFSET 0.00000 -18.01768 0.00000
			CHANNELS 3 Xrotation Yrotation Zrotation
			JOINT LeftFoot
			{
				OFFSET 0.00000 -16.88108 0.00000
				CHANNELS 3 Xrotation Yrotation Zrotation
				JOINT LeftToeBase
				{
					OFFSET 0.00000 -1.49359 5.57418
					CHANNELS 3 Xrotation Yrotation Zrotation
					End Site
					{
						OFFSET 0.00000 0.00000 2.95275
					}
				}
			}
		}
	}
	JOINT Spine
	{
		OFFSET 0.00000 7.77970 0.00000
		CHANNELS 3 Xrotation Yrotation Zrotation
		JOINT RightShoulder
		{
			OFFSET 0.00000 10.94176 0.00000
			CHANNELS 3 Xrotation Yrotation Zrotation
			JOINT RightArm
			{
				OFFSET -7.70894 0.00000 0.00000
				CHANNELS 3 Xrotation Yrotation Zrotation
				JOINT RightForeArm
				{
					OFFSET -11.52135 0.00000 0.00000
					CHANNELS 3 Yrotation Zrotation Xrotation
					JOINT RightHand
					{
						OFFSET -10.17590 0.00000 0.00000
						CHANNELS 3 Xrotation Yrotation Zrotation
						End Site
						{
							OFFSET -3.93700 0.00000 0.00000
						}
						JOINT RightHandThumb1
						{
							OFFSET 0.00000 0.00000 0.00000
							CHANNELS 3 Xrotation Zrotation Yrotation
							End Site
							{
								OFFSET 0.00000 0.00000 3.93700
							}
						}
					}
				}
			}
		}
		JOINT LeftShoulder
		{
			OFFSET 0.00000 10.94176 0.00000
			CHANNELS 3 Xrotation Yrotation Zrotation
			JOINT LeftArm
			{
				OFFSET 7.70894 0.00000 0.00000
				CHANNELS 3 Xrotation Yrotation Zrotation
				JOINT LeftForeArm
				{
					OFFSET 11.52135 0.00000 0.00000
					CHANNELS 3 Yrotation Zrotation Xrotation
					JOINT LeftHand
					{
						OFFSET 10.17590 0.00000 0.00000
						CHANNELS 3 Xrotation Yrotation Zrotation
						End Site
						{
							OFFSET 3.93700 0.00000 0.00000
						}
						JOINT LeftHandThumb1
						{
							OFFSET 0.00000 0.00000 0.00000
							CHANNELS 3 Xrotation Zrotation Yrotation
							End Site
							{
								OFFSET 0.00000 0.00000 3.93700
							}
						}
					}
				}
			}
		}
		JOINT Head
		{
			OFFSET 0.00000 16.64604 0.00000
			CHANNELS 3 Xrotation Yrotation Zrotation
			End Site
			{
				OFFSET 0.00000 4.52755 0.00000
			}
		}
	}
}
MOTION
Frames:	9
Frame Time: 0.008333
-2.2426 37.1225 3.4102 1.1088 6.7622 -0.9551 7.3940 -4.6852 -1.2144 -3.8539 0.0000 -0.0000 -5.7608 -21.0797 10.9161 9.6721 -0.0000 -0.0000 6.4352 3.7173 2.6989 -4.1888 0.0000 -0.0000 -8.0498 19.6184 -9.2263 14.2905 -0.0000 -0.0000 -1.1820 1.8816 2.2431 10.1221 -26.8592 -25.7206 -93.4949 -13.9213 13.5508 -5.8351 -0.0000 -56.1496 -3.6748 -18.7813 -11.2815 33.1476 -0.0000 -26.2537 25.6748 -1.7055 10.8182 -12.8169 -32.9887 -74.1977 -33.1460 0.0000 -14.1998 0.0405 -3.4596 0.6719 32.8623 0.0000 24.3270 13.4642 -22.8660 -6.3875
-2.2562 37.1212 3.4045 1.1060 6.6148 -0.9596 7.3652 -4.6364 -1.2040 -3.8510 0.0000 -0.0000 -5.7374 -20.9412 10.8421 9.4871 -0.0000 -0.0000 6.4047 3.8365 2.7173 -4.1160 0.0000 -0.0000 -8.0960 19.6179 -9.2278 14.3108 -0.0000 -0.0000 -1.1526 2.1295 2.1116 10.0987 -27.2486 -26.0680 -94.8110 -15.8028 13.8432 -7.0940 -0.0000 -56.6164 -6.7954 -20.9528 -18.4294 33.1476 -0.0000 -26.2537 25.5744 -1.7441 10.8672 -12.9078 -32.7869 -74.2721 -32.8218 0.0000 -14.0917 0.0521 -3.4652 0.8618 32.8623 0.0000 24.3270 13.4439 -23.0876 -6.1871
-2.2722 37.1209 3.3979 1.1051 6.5013 -0.9704 7.3407 -4.6114 -1.1793 -3.8557 0.0000 -0.0000 -5.7430 -20.8476 10.8033 9.5508 -0.0000 -0.0000 6.3663 3.9352 2.7404 -4.0508 0.0000 -0.0000 -8.1292 19.6328 -9.2021 14.3181 -0.0000 -0.0000 -1.1151 2.2684 1.9648 10.2887 -27.6288 -26.1696 -96.2698 -17.8314 14.0509 -7.6578 0.0000 -57.2842 -9.9698 -22.1180 -25.0264 33.1476 -0.0000 -26.2537 25.5189 -1.6722 10.8592 -13.1187 -32.6250 -74.3559 -32.3879 0.0000 -14.0718 0.0629 -3.4909 1.0324 32.8623 0.0000 24.3270 13.4108 -23.2926 -5.9757
-2.2907 37.1223 3.3914 1.0845 6.3936 -0.9764 7.3384 -4.5615 -1.1536 -3.8688 0.0000 -0.0000 -5.7462 -20.8397 10.8676 9.6889 -0.0000 -0.0000 6.3551 4.0378 2.7721 -3.9921 0.0000 -0.0000 -8.1337 19.6123 -9.2731 14.2588 -0.0000 -0.0000 -1.0480 2.3937 1.8011 10.5428 -27.9383 -26.0637 -97.6320 -19.9282 14.1147 -7.6236 0.0000 -57.3067 -13.4957 -22.7671 -31.8062 33.1476 -0.0000 -26.2537 25.4013 -1.6242 10.8014 -13.2519 -32.3376 -74.3922 -31.9639 -0.0000 -14.0116 0.0757 -3.5006 1.2403 32.8623 0.0000 24.3270 13.3760 -23.5591 -5.7591
-2.3133 37.1249 3.3836 1.0806 6.2987 -0.9972 7.3115 -4.5179 -1.1065 -3.8604 0.0000 -0.0000 -5.7342 -20.7883 10.8292 9.7013 -0.0000 -0.0000 6.3172 4.0907 2.8128 -3.9339 0.0000 -0.0000 -8.1483 19.6838 -9.2297 14.2639 -0.0000 -0.0000 -1.0036 2.4926 1.6264 10.8980 -28.2234 -25.6995 -98.9052 -21.9976 14.1232 -7.1288 0.0000 -56.8911 -16.0505 -22.9721 -36.3959 33.1476 -0.0000 -26.2537 25.2841 -1.5684 10.7188 -13.3546 -32.0599 -74.4076 -31.5371 -0.0000 -14.0455 0.0926 -3.5323 1.5022 32.8623 0.0000 24.3270 13.3833 -23.8613 -5.5102
-2.3380 37.1260 3.3748 1.0887 6.2237 -1.0303 7.2766 -4.4952 -1.0470 -3.8537 0.0000 -0.0000 -5.6951 -20.6777 10.7679 9.6049 -0.0000 -0.0000 6.2722 4.1375 2.8753 -3.8894 0.0000 -0.0000 -8.1651 19.7213 -9.2163 14.3008 -0.0000 -0.0000 -0.9708 2.5539 1.4365 11.2397 -28.4038 -25.1781 -99.7440 -23.8868 14.1476 -6.5693 0.0000 -56.1209 -17.3185 -23.2812 -38.2709 33.1476 -0.0000 -26.2537 25.1663 -1.5045 10.6361 -13.4809 -31.6670 -74.4553 -31.0895 0.0000 -14.0590 0.1002 -3.5822 1.6028 32.8623 0.0000 24.3270 13.4038 -24.1804 -5.1926
-2.3644 37.1258 3.3672 1.0877 6.1523 -1.0829 7.2605 -4.4490 -0.9685 -3.8636 0.0000 -0.0000 -5.6867 -20.6698 10.8469 9.7554 -0.0000 -0.0000 6.2456 4.1578 2.9619 -3.8605 0.0000 -0.0000 -8.1877 19.7713 -9.1863 14.2833 -0.0000 -0.0000 -0.9308 2.6050 1.2608 11.7980 -28.6132 -24.4317 -100.4326 -25.5602 14.2517 -6.0809 0.0000 -55.5030 -17.1128 -23.5573 -37.6090 33.1476 -0.0000 -26.2537 25.0104 -1.4936 10.5759 -13.5348 -31.2033 -74.5262 -30.6609 0.0000 -14.1378 0.1215 -3.6544 1.9061 32.8623 0.0000 24.3270 13.4294 -24.5248 -4.8724
-2.3904 37.1239 3.3607 1.0753 6.0976 -1.1402 7.2642 -4.3923 -0.8851 -3.8748 0.0000 -0.0000 -5.6833 -20.6411 10.8942 9.7942 -0.0000 -0.0000 6.2348 4.1745 3.0516 -3.8395 0.0000 -0.0000 -8.2383 19.8247 -9.1369 14.3213 -0.0000 -0.0000 -0.8790 2.6401 1.0859 12.4283 -28.7712 -23.5837 -100.7216 -27.0092 14.4832 -5.7430 0.0000 -55.2700 -15.7162 -23.7875 -34.9014 33.1476 -0.0000 -26.2537 24.9026 -1.4958 10.5167 -13.6009 -30.7371 -74.5822 -30.2433 0.0000 -14.3663 0.1556 -3.8091 2.3411 32.8623 0.0000 24.3270 13.4718 -24.7505 -4.5135
-2.4165 37.1204 3.3536 1.0720 6.0349 -1.2251 7.2510 -4.3310 -0.7732 -3.8716 0.0000 -0.0000 -5.6696 -20.6082 10.9041 9.7582 -0.0000 -0.0000 6.2288 4.1733 3.1627 -3.8522 0.0000 -0.0000 -8.2942 19.9145 -9.0415 14.3298 -0.0000 -0.0000 -0.8383 2.6277 0.9569 13.0400 -28.7290 -22.7320 -100.6485 -28.1847 14.6849 -5.5872 0.0000 -55.6293 -13.8035 -24.0018 -31.1322 33.1476 -0.0000 -26.2537 24.8096 -1.4683 10.4187 -13.6651 -30.2699 -74.6273 -29.8173 0.0000 -14.7483 0.1686 -3.8374 2.5175 32.8623 0.0000 24.3270 13.5025 -24.8200 -4.2145
